# xmcd
#
# Track frame offsets: 
#        150
#        15776
#        29106
#        48633
#        61115
#        111862
#        123249
#        134206
#        146173
#        159498
#        171344
#        183468
#        194241
#        202626
#        216511
#        228133
#        241627
#        253473
#        274144
#        285926
#
# Disc length: 3986 seconds
#
# Revision: 1
# Processed by: cddbd v1.5.2PL0 Copyright (c) Steve Scherf et al.
# Submitted via: ExactAudioCopyFreeDBPlugin 1.0
#
DISCID=300f9014
DTITLE=Bruce, Jack - Can You Follow?
DYEAR=1900
DGENRE=Rock
TTITLE0=ALEXIS KORNER'S BLUES INCORPORATED I'm A Hootchie Coochie Man 
TTITLE0=LIVE
TTITLE1=ALEXIS KORNER'S BLUES INCORPORATED Early In The Morning
TTITLE2=ALEXIS KORNER'S BLUES INCORPORATED Night Time Is The Right Tim
TTITLE2=e
TTITLE3=ALEXIS KORNER'S BLUES INCORPORATED Rockin' LIVE
TTITLE4=THE GRAHAM BOND QUARTET Doxy LIVE
TTITLE5=DUFFY POWER and THE GRAHAM BOND QUARTET I Saw Her Standing There
TTITLE5=ORIGINAL VERSION
TTITLE6=THE GRAHAM BOND ORGANISATION Long Tall Shorty
TTITLE7=THE GRAHAM BOND ORGANISATION Little Girl
TTITLE8=THE GRAHAM BOND ORGANISATION High Heeled Sneakers
TTITLE9=THE GRAHAM BOND ORGANISATION Strut Around
TTITLE10=THE GRAHAM BOND ORGANISATION Wade In The Water
TTITLE11=THE GRAHAM BOND ORGANISATION Train Time
TTITLE12=THE GRAHAM BOND ORGANISATION Baby Make Love To Me
TTITLE13=THE GRAHAM BOND ORGANISATION Spanish Blues
TTITLE14=THE GRAHAM BOND ORGANISATION Baby Be Good To Me
TTITLE15=THE GRAHAM BOND ORGANISATION Last Night
TTITLE16=THE GRAHAM BOND ORGANISATION Hear Me Calling Your Name
TTITLE17=JOHN MAYALL'S BLUESBREAKERS They Call It Stormy Monday LIVE
TTITLE18=I'm Getting Tired (Of Drinking And Gambling)
TTITLE19=Rootin' Tootin'
EXTD=
EXTT0=
EXTT1=
EXTT2=
EXTT3=
EXTT4=
EXTT5=
EXTT6=
EXTT7=
EXTT8=
EXTT9=
EXTT10=
EXTT11=
EXTT12=
EXTT13=
EXTT14=
EXTT15=
EXTT16=
EXTT17=
EXTT18=
EXTT19=
PLAYORDER=
